<svg width="848" height="520" xmlns="http://www.w3.org/2000/svg" version="1.1"><g transform="translate(0,10)"><g><path class="link" d="M5,148C424,148 424,158 843,158" style="stroke-width: 92; fill: none; stroke: rgb(191, 105, 105); stroke-opacity: 0.4;"><title>1</title></path><path class="link" d="M5,250C424,250 424,250 843,250" style="stroke-width: 92; fill: none; stroke: rgb(174, 191, 105); stroke-opacity: 0.4;"><title>1</title></path><path class="link" d="M5,352C424,352 424,342 843,342" style="stroke-width: 92; fill: none; stroke: rgb(105, 191, 139); stroke-opacity: 0.4;"><title>1</title></path><path class="link" d="M5,454C424,454 424,434 843,434" style="stroke-width: 92; fill: none; stroke: rgb(105, 139, 191); stroke-opacity: 0.4;"><title>1</title></path><path class="link" d="M5,46C424,46 424,66 843,66" style="stroke-width: 92; fill: none; stroke: rgb(37, 37, 37); stroke-opacity: 0.4;"><title>1</title></path></g><g><g class="node" transform="translate(843,20)"><rect height="460" width="5" style="fill: rgb(102, 102, 102);"><title>RIVER BIRCH
5</title></rect><text x="-6" y="230" dy=".35em" text-anchor="end" style="font-size: 11px; font-family: Arial, Helvetica; pointer-events: none;">RIVER BIRCH</text></g><g class="node" transform="translate(0,0)"><rect height="92" width="5"><title>* STORAGE
1</title></rect><text x="11" y="46" dy=".35em" text-anchor="start" style="font-size: 11px; font-family: Arial, Helvetica; pointer-events: none;">* STORAGE</text></g><g class="node" transform="translate(0,102)"><rect height="92" width="5"><title>ARK-CNG
1</title></rect><text x="11" y="46" dy=".35em" text-anchor="start" style="font-size: 11px; font-family: Arial, Helvetica; pointer-events: none;">ARK-CNG</text></g><g class="node" transform="translate(0,204)"><rect height="92" width="5"><title>MTS-CNG
1</title></rect><text x="11" y="46" dy=".35em" text-anchor="start" style="font-size: 11px; font-family: Arial, Helvetica; pointer-events: none;">MTS-CNG</text></g><g class="node" transform="translate(0,306)"><rect height="92" width="5"><title>QFC-CNG
1</title></rect><text x="11" y="46" dy=".35em" text-anchor="start" style="font-size: 11px; font-family: Arial, Helvetica; pointer-events: none;">QFC-CNG</text></g><g class="node" transform="translate(0,408)"><rect height="92" width="5"><title>ST-CNG
1</title></rect><text x="11" y="46" dy=".35em" text-anchor="start" style="font-size: 11px; font-family: Arial, Helvetica; pointer-events: none;">ST-CNG</text></g></g></g></svg>